<?xml version="1.0" standalone="no"?>
<!DOCTYPE svg PUBLIC "-//W3C//DTD SVG 20010904//EN"
 "http://www.w3.org/TR/2001/REC-SVG-20010904/DTD/svg10.dtd">
<svg version="1.0" xmlns="http://www.w3.org/2000/svg"
 width="120.000000pt" height="120.000000pt" viewBox="0 0 120.000000 120.000000"
 preserveAspectRatio="xMidYMid meet">

<g xmlns="http://www.w3.org/2000/svg" transform="translate(0.000000,128.000000) scale(0.100000,-0.100000)" fill="#000000" stroke="none">
<path d="M390 1219 c-47 -9 -129 -25 -182 -34 -72 -13 -99 -22 -102 -34 -5 -15 -10 -159 -21 -581 -3 -107 -8 -262 -11 -344 l-6 -149 249 7 c136 4 300 9 363 11 63 2 198 7 300 11 102 3 186 7 188 8 10 10 72 358 65 369 -17 29 -727 746 -742 749 -9 2 -54 -4 -101 -13z m69 -91 c-1 -64 -32 -201 -47 -206 -7 -2 -35 20 -64 50 -28 29 -71 74 -96 100 l-45 47 28 11 c26 10 168 37 208 39 14 1 17 -7 16 -41z m286 -227 l20 -23 -137 4 c-76 2 -141 7 -144 11 -7 6 22 194 34 226 4 9 39 -21 106 -90 56 -58 110 -115 121 -128z m-482 101 c96 -97 118 -124 120 -150 2 -36 2 -36 26 -22 15 8 50 -23 214 -189 109 -109 197 -202 197 -207 0 -15 -62 -52 -100 -59 -38 -8 -62 -17 -248 -95 -195 -81 -312 -122 -312 -107 0 16 47 161 65 202 26 58 122 310 129 338 17 72 -22 -3 -121 -233 -60 -139 -95 -203 -104 -189 -5 8 -7 164 -4 374 3 198 5 381 5 408 0 26 3 47 8 47 4 0 60 -53 125 -118z m563 -197 c17 -23 29 -304 14 -318 -9 -9 -50 28 -176 156 -90 92 -164 172 -164 179 0 19 312 3 326 -17z m200 -175 c71 -72 130 -135 132 -139 4 -12 -17 -17 -123 -31 -49 -6 -100 -13 -112 -16 -19 -4 -22 1 -27 38 -9 73 -14 278 -7 278 4 0 66 -59 137 -130z m154 -219 c0 -31 -41 -205 -51 -216 -10 -10 -199 171 -199 191 0 10 152 41 218 43 25 1 32 -3 32 -18z m-258 -72 c27 -23 79 -76 115 -117 57 -66 63 -76 47 -83 -32 -11 -797 -5 -801 7 -2 5 23 22 54 37 55 25 86 37 293 118 47 18 108 43 135 56 72 33 99 30 157 -18z"/>
</g>
</svg>
